<svg width="29" height="29" viewBox="0 0 29 29" fill="none" xmlns="http://www.w3.org/2000/svg">
<path d="M20.124 11.6665L17.835 8.80659C17.7939 8.75515 17.8041 8.68314 17.8556 8.64713L23.7555 3.94055C23.807 3.8994 23.879 3.90969 23.915 3.96113L26.1988 6.82108C26.24 6.87252 26.2297 6.94453 26.1783 6.98054L20.2835 11.6871C20.232 11.718 20.16 11.718 20.124 11.6665Z" fill="#D60388"/>
<path d="M4.3171 24.2792L2.03325 21.4192C1.9921 21.3678 2.00239 21.2957 2.05382 21.2597L7.95377 16.5532C8.00521 16.512 8.07722 16.5223 8.11322 16.5737L10.3971 19.4337C10.4382 19.4851 10.4279 19.5571 10.3765 19.5931L4.47656 24.2997C4.43026 24.3357 4.35311 24.3306 4.3171 24.2792Z" fill="#DC098E"/>
<path d="M16.5696 20.1178L19.4296 17.834C19.481 17.7928 19.553 17.8031 19.589 17.8546L24.2956 23.7545C24.3368 23.8059 24.3265 23.878 24.275 23.914L21.4151 26.1978C21.3636 26.239 21.2916 26.2287 21.2556 26.1772L16.549 20.2773C16.5079 20.231 16.5182 20.159 16.5696 20.1178Z" fill="#F35DF6"/>
<path d="M3.95702 4.31608L6.81698 2.03223C6.86842 1.99108 6.94043 2.00136 6.97644 2.0528L11.683 7.95275C11.7242 8.00418 11.7139 8.0762 11.6624 8.1122L8.80249 10.3961C8.75105 10.4372 8.67903 10.4269 8.64303 10.3755L3.93645 4.48068C3.8953 4.42924 3.90559 4.35723 3.95702 4.31608Z" fill="#EA6CFB"/>
<path d="M20.0931 16.6303L20.4995 12.9936C20.5098 12.9319 20.5612 12.8856 20.6281 12.8908L28.1277 13.7292C28.1895 13.7395 28.2357 13.7909 28.2306 13.8578L27.8242 17.4945C27.814 17.5562 27.7625 17.6025 27.6956 17.5974L20.196 16.7589C20.1291 16.7486 20.0828 16.692 20.0931 16.6303Z" fill="#85F2FD"/>
<path d="M0.00143115 14.3722L0.407791 10.7355C0.418079 10.6738 0.469517 10.6275 0.536386 10.6327L8.03605 11.4711C8.09778 11.4814 8.14407 11.5328 8.13893 11.5997L7.73257 15.2364C7.72228 15.2981 7.67084 15.3444 7.60397 15.3392L0.104307 14.5008C0.0374378 14.4905 -0.00885645 14.4339 0.00143115 14.3722Z" fill="#66F0F1"/>
<path d="M11.6058 20.0973L15.2425 20.5036C15.3042 20.5139 15.3505 20.5653 15.3454 20.6322L14.5069 28.1319C14.4967 28.1936 14.4452 28.2399 14.3783 28.2348L10.7417 27.8284C10.68 27.8181 10.6337 27.7667 10.6388 27.6998L11.4772 20.195C11.4875 20.1333 11.539 20.087 11.6058 20.0973Z" fill="#E2C56F"/>
<path d="M13.8588 0.000390409L17.4955 0.406751C17.5572 0.417039 17.6035 0.468477 17.5984 0.535346L16.7599 8.03501C16.7497 8.09674 16.6982 8.14303 16.6314 8.13789L12.9947 7.73153C12.933 7.72124 12.8867 7.6698 12.8918 7.60293L13.7302 0.103266C13.7405 0.0415408 13.7971 -0.00475339 13.8588 0.000390409Z" fill="#E5C862"/>
</svg>