<?xml version="1.0" encoding="utf-8"?>
<!-- Generator: Adobe Illustrator 25.0.0, SVG Export Plug-In . SVG Version: 6.00 Build 0)  -->
<svg version="1.1" id="Layer_1" xmlns="http://www.w3.org/2000/svg" xmlns:xlink="http://www.w3.org/1999/xlink" x="0px" y="0px"
	 viewBox="0 0 1000 1000" style="enable-background:new 0 0 1000 1000;" xml:space="preserve">
<style type="text/css">
	.st0{fill:#26BAA9;}
</style>
<g>
	<path class="st0" d="M628.8,502.8c-5.1,0-10.1,0.6-14.9,1.8l-21.4-55.7h74.7c3.5,0,6.2-2.8,6.2-6.2c0-3.4-2.8-6.2-6.2-6.2h-79.5
		l-18.3-47.5h-49c-3.4,0-6.2,2.8-6.2,6.2c0,3.4,2.8,6.2,6.2,6.2h40.5l15.4,40.1L508,521.9l-38.2-85.6h26.5c3.5,0,6.2-2.8,6.2-6.2
		s-2.8-6.2-6.2-6.2h-56.9c-3.4,0-6.2,2.8-6.2,6.2s2.8,6.2,6.2,6.2h16.7l48.5,108.8l76.6-90.4l20.8,54
		c-22.2,10.2-37.6,32.5-37.6,58.5c0,35.5,28.8,64.3,64.3,64.3c35.5,0,64.3-28.8,64.3-64.3C693.1,531.6,664.3,502.8,628.8,502.8z
		 M628.5,608c-22.6,0-41-18.4-41-41s18.4-41,41-41s41,18.4,41,41S651.1,608,628.5,608z"/>
	<path class="st0" d="M628.8,558.1c-5,0-9.1,4.1-9.1,9.1c0,5,4.1,9.1,9.1,9.1c5,0,9.1-4.1,9.1-9.1
		C637.9,562.1,633.8,558.1,628.8,558.1z"/>
	<rect x="600" y="374.1" class="st0" width="69.9" height="46.1"/>
	<rect x="313.9" y="397" class="st0" width="94.7" height="87.5"/>
	<rect x="313.9" y="368.5" class="st0" width="94.4" height="21.3"/>
	<path class="st0" d="M429,515.2c11.6,12.5,19.5,28.5,21.7,46.2H486l-33.2-87.7L429,515.2z"/>
	<path class="st0" d="M370.2,502.8c-35.5,0-64.3,28.8-64.3,64.3c0,35.5,28.8,64.3,64.3,64.3c35.5,0,64.3-28.8,64.3-64.3
		C434.5,531.6,405.7,502.8,370.2,502.8z M370.5,608c-22.6,0-41-18.4-41-41s18.4-41,41-41s41,18.4,41,41S393.1,608,370.5,608z"/>
	<path class="st0" d="M370.2,558.1c-5,0-9.1,4.1-9.1,9.1c0,5,4.1,9.1,9.1,9.1c5,0,9.1-4.1,9.1-9.1
		C379.3,562.1,375.2,558.1,370.2,558.1z"/>
</g>
<path class="st0" d="M499.5,834.3c-89,0-172.7-34.7-235.7-97.6c-63-63-97.6-146.7-97.6-235.7c0-89,34.7-172.7,97.6-235.7
	s146.7-97.6,235.7-97.6c89,0,172.7,34.7,235.7,97.6c63,63,97.6,146.7,97.6,235.7c0,89-34.7,172.7-97.6,235.7
	S588.5,834.3,499.5,834.3z M499.5,182.7C324,182.7,181.2,325.5,181.2,501c0,175.5,142.8,318.3,318.3,318.3
	c175.5,0,318.3-142.8,318.3-318.3C817.8,325.5,675,182.7,499.5,182.7z"/>
<g>
	<g>
		<path class="st0" d="M144.6,298.9l10-19.4l27.9,14.6c1.3,10.9-1.5,23.5-6.5,33.2c-11.1,21.4-33.4,29.6-53.7,19
			c-20.3-10.6-26.5-33.6-15.2-55.5c6.8-13.1,16.7-21.2,28.4-23.6l5.2,20.8c-7,1.7-11.9,5.2-15,11.1c-5.1,9.8-2,19.4,8.2,24.7
			c9.9,5.2,19.7,2.4,24.7-7.2c1.4-2.7,2.3-5.6,2.6-9L144.6,298.9z"/>
		<path class="st0" d="M166.8,263.9c-16.9-14.9-17.5-39.1-1.5-57.4c16-18.2,40.1-20.8,57-5.8c16.9,14.9,17.5,39.1,1.5,57.4
			C207.8,276.3,183.8,278.9,166.8,263.9z M205.6,219.8c-8.7-7.7-18.9-6.7-25,0.2c-6.1,7-5.8,17.2,2.9,24.9c8.7,7.7,18.9,6.7,25-0.2
			C214.7,237.7,214.3,227.4,205.6,219.8z"/>
		<path class="st0" d="M235.9,188.8c-12.7-18.7-7.2-42.2,12.8-55.9c20.1-13.7,44-10.1,56.7,8.5c12.7,18.7,7.2,42.2-12.8,55.9
			C272.6,211,248.6,207.4,235.9,188.8z M284.5,155.7c-6.5-9.6-16.7-11.2-24.3-6c-7.7,5.2-9.9,15.2-3.3,24.8
			c6.5,9.6,16.7,11.2,24.3,6C288.8,175.3,291,165.3,284.5,155.7z"/>
		<path class="st0" d="M399.5,145l-11.3-32l-6.4,31l-10.5,3.6l-23.8-19.4l10.7,31l-21.6,7.5l-24.4-70.4l19.5-6.7l36,29.6l9.3-45.2
			l19.5-6.7l24.6,70.4L399.5,145z"/>
		<path class="st0" d="M507.4,109.8c1,12.9-9.3,21.3-29.8,22.8l-41.9,3.1l-5.8-74.3l39.7-3c20.5-1.5,30.7,5.9,31.6,17.2
			c0.5,6.9-2.5,12.9-9.1,16.8C501.2,95,506.7,101,507.4,109.8z M455.9,77.2l0.9,11l11.7-0.9c5.6-0.4,8-2.5,7.7-6.1s-3-5.3-8.6-4.9
			L455.9,77.2z M481.9,108.8c-0.3-3.8-3.2-5.6-8.7-5.2l-15.1,1.1l0.9,11.7l15.1-1.1C479.6,114.9,482.2,112.7,481.9,108.8z"/>
		<path class="st0" d="M572.9,126.3l-28-4.5l-7,12l-25.3-4.1l43.8-68.3l24.4,3.9l20.6,78.7l-25.7-4.1L572.9,126.3z M568.9,107.3
			l-4.2-19.6L554.6,105L568.9,107.3z"/>
		<path class="st0" d="M654.6,136.9l-9.7,25.2l-23.5-9.1l9.8-25.5L622,73.4l24.8,9.6l4.9,29.5l23.6-18.4l22.7,8.8L654.6,136.9z"/>
		<path class="st0" d="M675.8,162.7c4-7.1,12-8.8,18.9-4.9c7,4,9.6,11.7,5.5,18.8c-4,7-12.1,9-19,5
			C674.3,177.7,671.8,169.7,675.8,162.7z"/>
		<path class="st0" d="M754.8,217.4L733,199.1l-12.1,6.7l-19.6-16.5l72.7-36.1l19,15.9l-22.6,78.1l-20-16.7L754.8,217.4z M761.1,199
			l6.4-19l-17.5,9.7L761.1,199z"/>
		<path class="st0" d="M853.2,281.5c-13.8,10.3-30.4,6.2-42.9-10.4l-6.5-8.6l-14.6,11l-15.1-20.2l59.4-44.6l21.6,28.8
			C867.7,254.1,867,271.2,853.2,281.5z M838,261.2c4.3-3.3,5-7.9,0.8-13.4l-5.5-7.3l-13.9,10.5l5.5,7.3
			C829,263.7,833.6,264.4,838,261.2z"/>
		<path class="st0" d="M892.8,363.9c-15.7,7.1-31-0.5-39.6-19.5l-4.5-9.8l-16.6,7.5l-10.4-23l67.7-30.6l14.9,32.8
			C912.9,340.3,908.4,356.8,892.8,363.9z M882.3,340.7c4.9-2.2,6.6-6.6,3.7-12.9l-3.8-8.4l-15.9,7.2l3.8,8.4
			C873,341.3,877.4,343,882.3,340.7z"/>
	</g>
</g>
</svg>
