<?xml version="1.0" encoding="utf-8"?>
<!-- Generator: Adobe Illustrator 25.0.0, SVG Export Plug-In . SVG Version: 6.00 Build 0)  -->
<svg version="1.1" id="Layer_1" xmlns="http://www.w3.org/2000/svg" xmlns:xlink="http://www.w3.org/1999/xlink" x="0px" y="0px"
	 viewBox="0 0 1000 1000" style="enable-background:new 0 0 1000 1000;" xml:space="preserve">
<style type="text/css">
	.st0{fill:#26BAA9;}
	.st1{fill:none;}
</style>
<g>
	<g>
		<path class="st0" d="M628.8,502.8c-5.1,0-10.1,0.6-14.9,1.8l-21.4-55.7h74.7c3.5,0,6.2-2.8,6.2-6.2c0-3.4-2.8-6.2-6.2-6.2h-79.5
			l-18.3-47.5h-49c-3.4,0-6.2,2.8-6.2,6.2c0,3.4,2.8,6.2,6.2,6.2h40.5l15.4,40.1L508,521.9l-38.2-85.6h26.5c3.5,0,6.2-2.8,6.2-6.2
			s-2.8-6.2-6.2-6.2h-56.9c-3.4,0-6.2,2.8-6.2,6.2s2.8,6.2,6.2,6.2h16.7l48.5,108.8l76.6-90.4l20.8,54
			c-22.2,10.2-37.6,32.5-37.6,58.5c0,35.5,28.8,64.3,64.3,64.3c35.5,0,64.3-28.8,64.3-64.3C693.1,531.6,664.3,502.8,628.8,502.8z
			 M628.5,608c-22.6,0-41-18.4-41-41s18.4-41,41-41s41,18.4,41,41S651.1,608,628.5,608z"/>
		<path class="st0" d="M628.8,558.1c-5,0-9.1,4.1-9.1,9.1c0,5,4.1,9.1,9.1,9.1c5,0,9.1-4.1,9.1-9.1
			C637.9,562.1,633.8,558.1,628.8,558.1z"/>
		<rect x="600" y="374.1" class="st0" width="69.9" height="46.1"/>
		<rect x="313.9" y="397" class="st0" width="94.7" height="87.5"/>
		<rect x="313.9" y="368.5" class="st0" width="94.4" height="21.3"/>
		<path class="st0" d="M429,515.2c11.6,12.5,19.5,28.5,21.7,46.2H486l-33.2-87.7L429,515.2z"/>
		<path class="st0" d="M370.2,502.8c-35.5,0-64.3,28.8-64.3,64.3c0,35.5,28.8,64.3,64.3,64.3c35.5,0,64.3-28.8,64.3-64.3
			C434.5,531.6,405.7,502.8,370.2,502.8z M370.5,608c-22.6,0-41-18.4-41-41s18.4-41,41-41s41,18.4,41,41S393.1,608,370.5,608z"/>
		<path class="st0" d="M370.2,558.1c-5,0-9.1,4.1-9.1,9.1c0,5,4.1,9.1,9.1,9.1c5,0,9.1-4.1,9.1-9.1
			C379.3,562.1,375.2,558.1,370.2,558.1z"/>
	</g>
	<path class="st0" d="M499.5,834.3c-89,0-172.7-34.7-235.7-97.6c-63-63-97.6-146.7-97.6-235.7c0-89,34.7-172.7,97.6-235.7
		s146.7-97.6,235.7-97.6c89,0,172.7,34.7,235.7,97.6c63,63,97.6,146.7,97.6,235.7c0,89-34.7,172.7-97.6,235.7
		S588.5,834.3,499.5,834.3z M499.5,182.7C324,182.7,181.2,325.5,181.2,501c0,175.5,142.8,318.3,318.3,318.3
		c175.5,0,318.3-142.8,318.3-318.3C817.8,325.5,675,182.7,499.5,182.7z"/>
	<g>
		<path id="SVGID_x5F_1_x5F_" class="st1" d="M860.1,578.4C817.5,776.9,621.8,902.6,423,859.3C224.1,816,97.4,620,139.9,421.6
			C182.5,223.1,378.2,97.4,577,140.7C775.9,184,902.6,380,860.1,578.4z"/>
		<text>		<textPath  xlink:href="#SVGID_x5F_1_x5F_" startOffset="69.9323%">
<tspan  class="st0" style="font-family:'Montserrat-Black'; font-size:106.3303px; letter-spacing:62.8;">GOOMBAY.APP</tspan>		</textPath>
</text>
	</g>
</g>
</svg>
