  <svg width="52" height="15" viewBox="0 0 52 15" fill="none" xmlns="http://www.w3.org/2000/svg">
<path d="M6.10546 0V7.60582C6.10546 8.68988 5.83662 9.51377 5.30759 10.0688C4.7699 10.6239 3.99804 10.9014 2.98335 10.9014C2.6538 10.9014 2.35893 10.8754 2.09875 10.8147C1.83858 10.7626 1.58707 10.6672 1.35292 10.5371C1.11876 10.407 0.8846 10.2423 0.667786 10.0255C0.450973 9.81731 0.225486 9.55713 0 9.26227L0.858582 8.4644C1.12743 8.87201 1.43964 9.19289 1.78654 9.41838C2.14212 9.64386 2.60176 9.7566 3.16548 9.7566C3.82459 9.7566 4.28423 9.55714 4.56175 9.16687C4.8306 8.76793 4.96936 8.24758 4.96936 7.58847V0H6.10546Z" fill="#E5C862"/>
<path d="M6.72119 0.659116C6.72119 0.46832 6.7819 0.303542 6.89464 0.182126C7.01606 0.0607109 7.17216 0 7.36296 0C7.55375 0 7.71853 0.0607109 7.83995 0.182126C7.96136 0.303542 8.02207 0.46832 8.02207 0.659116C8.02207 0.849912 7.96136 1.01469 7.83995 1.12743C7.71853 1.24885 7.55375 1.30088 7.36296 1.30088C7.17216 1.30088 7.00739 1.24017 6.89464 1.12743C6.7819 1.01469 6.72119 0.858584 6.72119 0.659116ZM6.84261 10.7713V3.07875H7.918V10.7713H6.84261Z" fill="#E5C862"/>
<path d="M14.0322 10.7713V5.84526C14.0322 5.19482 13.8414 4.71783 13.4511 4.38827C13.0695 4.06739 12.5925 3.90261 12.0288 3.90261C11.7339 3.90261 11.4651 3.96331 11.2222 4.07606C10.9794 4.19747 10.7626 4.34491 10.5718 4.51836C10.381 4.70048 10.2162 4.89127 10.0775 5.09941C9.93871 5.30756 9.8173 5.49835 9.71323 5.67181V10.7626H8.63783V3.0527H9.7219V4.10207C9.96473 3.77252 10.303 3.495 10.7192 3.26084C11.1355 3.02668 11.6559 2.91394 12.2543 2.91394C12.6445 2.91394 13.0088 2.97465 13.3557 3.08739C13.7026 3.20881 13.9975 3.37358 14.2576 3.59907C14.5178 3.82455 14.7173 4.11075 14.8647 4.44897C15.0121 4.7872 15.0902 5.17747 15.0902 5.61977V10.7626H14.0322V10.7713Z" fill="#E5C862"/>
<path d="M15.706 13.0435C16.3738 12.9654 16.8508 12.7313 17.1456 12.341C17.4405 11.9594 17.5879 11.3957 17.5879 10.6672V3.05273H18.6633V10.7193C18.6633 11.1182 18.6113 11.4998 18.5072 11.8727C18.4031 12.2456 18.247 12.5752 18.0215 12.8614C17.8047 13.1562 17.5185 13.3991 17.1716 13.5899C16.8247 13.7807 16.4171 13.9107 15.9315 13.9628L15.706 13.0435ZM17.4752 0.659116C17.4752 0.46832 17.5359 0.303542 17.6486 0.182126C17.77 0.0607109 17.9261 0 18.1169 0C18.3077 0 18.4725 0.0607109 18.5939 0.182126C18.7153 0.303542 18.7761 0.46832 18.7761 0.659116C18.7761 0.849912 18.7153 1.01469 18.5939 1.12743C18.4725 1.24885 18.3077 1.30088 18.1169 1.30088C17.9261 1.30088 17.7614 1.24017 17.6486 1.12743C17.5359 1.01469 17.4752 0.858584 17.4752 0.659116Z" fill="#E5C862"/>
<path d="M24.6127 10.7713V9.9561C24.4565 10.1642 24.2831 10.3204 24.101 10.4418C23.9102 10.5632 23.7107 10.6499 23.5026 10.7106C23.2944 10.7713 23.0689 10.8147 22.8261 10.8234C22.5833 10.8407 22.3318 10.8494 22.0629 10.8494C21.6813 10.8494 21.3344 10.806 21.0049 10.7106C20.6753 10.6152 20.3978 10.4765 20.155 10.2943C19.9121 10.1122 19.73 9.87805 19.5913 9.6092C19.4612 9.34035 19.3918 9.01947 19.3918 8.6639C19.3918 8.23027 19.4698 7.85735 19.6346 7.53647C19.7907 7.21558 20.0075 6.9554 20.2851 6.74726C20.5539 6.53912 20.8748 6.38302 21.2304 6.27895C21.5859 6.17488 21.9675 6.12285 22.3665 6.12285C22.7741 6.12285 23.173 6.14019 23.5546 6.16621C23.9362 6.2009 24.2918 6.27027 24.6127 6.40036V5.76727C24.6127 5.18621 24.4305 4.73524 24.0663 4.42303C23.702 4.11081 23.199 3.95471 22.5486 3.95471C22.141 3.95471 21.7941 4.00674 21.5079 4.10214C21.2217 4.19754 20.9442 4.42303 20.6666 4.76993L19.9121 4.11949C20.2417 3.72922 20.6146 3.44303 21.0396 3.26958C21.4558 3.08746 21.9762 3.00073 22.5919 3.00073C23.0429 3.00073 23.4592 3.06144 23.8408 3.17418C24.2224 3.28693 24.5433 3.46037 24.8208 3.68586C25.0896 3.91135 25.3065 4.18887 25.4539 4.51843C25.6013 4.84798 25.6794 5.22957 25.6794 5.65453V10.78H24.6127V10.7713ZM24.6127 7.4324C24.2918 7.28496 23.9622 7.20691 23.6153 7.18089C23.2684 7.15487 22.9128 7.1462 22.5573 7.1462C22.2971 7.1462 22.0456 7.17222 21.8027 7.21558C21.5599 7.25894 21.3344 7.34567 21.135 7.45841C20.9355 7.57116 20.7707 7.72726 20.6493 7.91806C20.5279 8.10885 20.4672 8.36035 20.4672 8.65522C20.4672 9.08885 20.632 9.40973 20.9528 9.62655C21.2737 9.84336 21.7247 9.94743 22.2971 9.94743C22.7654 9.94743 23.2077 9.8607 23.6153 9.69593C24.0229 9.52247 24.3525 9.22761 24.6213 8.79398V7.4324H24.6127Z" fill="#E5C862"/>
<path d="M33.9443 7.51042H29.9463L28.7928 10.7713H27.5006L31.3339 0H32.5654L36.3986 10.7713H35.1064L33.9443 7.51042ZM30.3365 6.36564H33.5194L31.9323 1.85592L30.3365 6.36564Z" fill="#D60388"/>
<path d="M38.0638 14.5872H37.0057V3.41701C37.899 3.13949 38.7749 3.00073 39.6335 3.00073C40.2579 3.00073 40.8303 3.09613 41.342 3.2956C41.8537 3.48639 42.296 3.76391 42.6602 4.11082C43.0245 4.45772 43.302 4.874 43.5015 5.35966C43.6922 5.84532 43.7963 6.36568 43.7963 6.92939C43.7963 7.61452 43.6749 8.20425 43.4407 8.69858C43.2066 9.19292 42.8944 9.60053 42.5128 9.91274C42.1312 10.2336 41.6889 10.4678 41.1946 10.6152C40.7002 10.7627 40.1972 10.8407 39.6855 10.8407C39.408 10.8407 39.1392 10.8234 38.8703 10.78C38.6015 10.7366 38.3326 10.6846 38.0724 10.6065V14.5872H38.0638ZM42.5735 6.90337C42.5735 6.0101 42.322 5.29028 41.8277 4.74391C41.3333 4.19754 40.6308 3.92002 39.7289 3.92002C39.4427 3.92002 39.1565 3.93736 38.879 3.97205C38.6015 4.00674 38.3326 4.07612 38.0638 4.16285V9.6092C38.3066 9.68725 38.5668 9.75664 38.827 9.81734C39.0871 9.87805 39.3386 9.90407 39.5901 9.90407C40.5008 9.90407 41.2292 9.64389 41.7669 9.12354C42.3046 8.61186 42.5735 7.8747 42.5735 6.90337Z" fill="#D60388"/>
<path d="M45.4614 14.5872H44.4034V3.41701C45.2967 3.13949 46.1726 3.00073 47.0312 3.00073C47.6556 3.00073 48.228 3.09613 48.7397 3.2956C49.2513 3.48639 49.6936 3.76391 50.0579 4.11082C50.4221 4.45772 50.6997 4.874 50.8991 5.35966C51.0899 5.84532 51.194 6.36568 51.194 6.92939C51.194 7.61452 51.0726 8.20425 50.8384 8.69858C50.6043 9.19292 50.292 9.60053 49.9105 9.91274C49.5289 10.2336 49.0866 10.4678 48.5922 10.6152C48.0979 10.7627 47.5949 10.8407 47.0832 10.8407C46.8057 10.8407 46.5368 10.8234 46.268 10.78C45.9991 10.7366 45.7303 10.6846 45.4701 10.6065V14.5872H45.4614ZM49.9712 6.90337C49.9712 6.0101 49.7197 5.29028 49.2253 4.74391C48.731 4.19754 48.0285 3.92002 47.1266 3.92002C46.8404 3.92002 46.5542 3.93736 46.2767 3.97205C45.9991 4.00674 45.7303 4.07612 45.4614 4.16285V9.6092C45.7043 9.68725 45.9645 9.75664 46.2246 9.81734C46.4848 9.87805 46.7363 9.90407 46.9878 9.90407C47.8984 9.90407 48.6269 9.64389 49.1646 9.12354C49.7023 8.61186 49.9712 7.8747 49.9712 6.90337Z" fill="#D60388"/>
</svg>